# xmcd
#
# Track frame offsets: 
#        150
#        17585
#        37760
#        52167
#        71250
#        86001
#        98974
#        114490
#        130988
#        145151
#        165715
#        183674
#        199819
#        211863
#        225366
#        253909
#        271133
#        301789
#
# Disc length: 4301 seconds
#
# Revision: 7
# Processed by: cddbd v1.5.2PL0 Copyright (c) Steve Scherf et al.
# Submitted via: ExactAudioCopy v0.99pb4
#
DISCID=f410cb12
DTITLE=No Doubt - Everything In Time - B-Sides, Rarities, Remixes
DYEAR=2004
DGENRE=Fusion
TTITLE0=Big Distraction
TTITLE1=Leftovers
TTITLE2=Under Construction
TTITLE3=Beauty Contest
TTITLE4=Full Circle
TTITLE5=Cellophane Boy
TTITLE6=Everything In Time (Los Angeles)
TTITLE7=You're So Foxy
TTITLE8=Panic
TTITLE9=New Friend
TTITLE10=Everything In Time (London)
TTITLE11=Sailin' On
TTITLE12=Oi To The World
TTITLE13=I Throw My Toys Around (ft Elvis Costello)
TTITLE14=New And Approved (New Remix)
TTITLE15=A Real Love Survives (Rock Steady Remix) (ft Ms. Dynamite)
TTITLE16=A Rocky Steady Vibe (Rock Steady Remix) (ft Sweetie Irie)
TTITLE17=Data
EXTD=YEAR: 2004
EXTT0=
EXTT1=
EXTT2=
EXTT3=
EXTT4=
EXTT5=
EXTT6=
EXTT7=
EXTT8=
EXTT9=
EXTT10=
EXTT11=
EXTT12=
EXTT13=
EXTT14=
EXTT15=
EXTT16=
EXTT17=
PLAYORDER=
